<svg width="1200" height="600" viewBox="0 0 1200 600" fill="none" xmlns="http://www.w3.org/2000/svg">
<g clip-path="url(#clip0_19_2)">
<path d="M264.754 452.874C239.159 451.858 218.219 444.858 201.846 431.856C198.721 429.372 191.275 421.925 188.777 418.784C182.137 410.439 177.623 402.317 174.612 393.306C165.347 365.568 170.115 329.169 188.251 289.222C203.778 255.022 227.738 221.103 269.54 174.124C275.698 167.212 294.035 146.995 294.153 146.995C294.197 146.995 293.198 148.725 291.94 150.832C281.071 169.03 271.771 190.464 266.704 209.021C258.566 238.796 259.548 264.348 269.579 284.162C276.5 297.812 288.363 309.636 301.704 316.172C325.059 327.609 359.253 328.556 401.011 318.94C403.886 318.274 546.348 280.474 717.595 234.937C888.843 189.395 1028.98 152.164 1029 152.195C1029.05 152.234 631.143 322.423 424.585 410.715C391.873 424.694 383.125 428.224 367.746 433.621C328.434 447.42 293.219 454.005 264.754 452.874Z" fill="black"/>
</g>
<defs>
<clipPath id="clip0_19_2">
<rect width="859" height="306" fill="white" transform="translate(170 147)"/>
</clipPath>
</defs>
</svg>
