<svg xmlns="http://www.w3.org/2000/svg" width="107" height="31" fill="none"><g fill="#191E1E" clip-path="url(#a)"><path d="M80.78 9.072c.919 0 1.7-.73 1.7-1.641 0-.912-.735-1.687-1.653-1.687-.964 0-1.744.73-1.744 1.641 0 .958.734 1.687 1.698 1.687ZM79.45 21.38h2.708V10.988H79.45V21.38ZM75.503 14.132c-.597-.866-.964-1.14-1.607-1.14-.642 0-1.101.32-1.101.867 0 .456.137.547 1.33 1.003l.965.364c1.79.684 2.57 1.55 2.57 2.964 0 2.006-1.698 3.556-3.947 3.556-1.331 0-2.525-.547-3.26-1.596-.32-.456-.504-.82-.825-1.641l2.203-.866c.642 1.322 1.101 1.686 1.927 1.686.689 0 1.194-.41 1.194-1.094 0-.456-.23-.592-1.331-1.048l-1.056-.41c-1.56-.593-2.34-1.55-2.34-2.918 0-1.87 1.606-3.283 3.717-3.283 1.652 0 2.754.775 3.672 2.462l-2.111 1.094Z"/><path fill-rule="evenodd" d="M56.73 16.184c0 3.145-2.432 5.562-5.553 5.562-3.167 0-5.6-2.462-5.6-5.608 0-3.1 2.479-5.516 5.645-5.516 3.076 0 5.508 2.462 5.508 5.562Zm-8.445 0c0 1.869 1.148 3.145 2.846 3.145 1.698 0 2.845-1.276 2.845-3.145 0-1.87-1.147-3.146-2.937-3.146-1.56 0-2.754 1.277-2.754 3.146Z" clip-rule="evenodd"/><path d="M34.01 10.987h2.938l2.846 6.656 2.983-6.656h2.938l-7.16 15.317h-2.846l2.662-5.425-4.36-9.892ZM62.835 21.746c.964 0 1.606-.274 2.432-.912v.593h2.708v-10.44h-2.708v5.197c0 1.322-.137 2.006-.505 2.416-.367.456-1.01.73-1.744.73-.55 0-1.055-.183-1.377-.548-.367-.456-.505-1.094-.505-2.37v-5.425h-2.708v5.607c0 1.778.322 2.918 1.148 3.784.826.866 2.065 1.368 3.259 1.368Z"/><path fill-rule="evenodd" d="M92.21 20.743c-1.102.775-1.79 1.003-2.846 1.003-3.03 0-5.462-2.508-5.462-5.562 0-3.1 2.433-5.562 5.462-5.562 1.101 0 1.79.228 2.846 1.003v-.638h2.708v10.03c0 3.373-2.295 5.607-5.646 5.607-1.423 0-2.754-.456-3.81-1.277-.413-.319-.504-.41-1.377-1.413L85.83 22.2l.413.456c1.01 1.186 1.698 1.55 2.983 1.55 1.882 0 2.984-1.185 2.984-3.19v-.274Zm-5.6-4.56c0 1.87 1.147 3.146 2.846 3.146 1.652 0 2.8-1.276 2.8-3.145 0-1.87-1.148-3.146-2.846-3.146-1.653 0-2.8 1.277-2.8 3.146Z" clip-rule="evenodd"/><path d="M102.491 10.576c-.964 0-1.607.274-2.433.912v-.501H97.35v10.44h2.708v-5.243c0-1.322.138-1.96.505-2.416.367-.456 1.01-.73 1.744-.73.551 0 1.056.183 1.377.547.367.456.505 1.094.505 2.37v5.38h2.708v-5.607c0-1.824-.321-2.918-1.148-3.784-.826-.866-2.065-1.368-3.258-1.368ZM8.997 0H1.102C.414 0-.138.638.046 1.322L2.433 13.13c.23 1.049 1.652 1.186 2.111.228l5.462-11.761C10.373.82 9.823 0 8.996 0Z"/><path fill-rule="evenodd" d="M15.973 0H22.4c1.01 0 1.836 1.14 1.468 2.006L10.604 30.407c-.138.365-.505.593-.964.593H3.213c-1.055 0-1.881-1.14-1.468-2.006L15.009.593c.138-.365.505-.593.964-.593Zm6.61 1.504c-.046-.045-.138-.136-.184-.136H16.11L3.03 29.496c.046.045.138.136.183.136h6.288L22.582 1.504Z" clip-rule="evenodd"/></g><defs><clipPath id="a"><path fill="#fff" d="M0 0h106.897v31H0z"/></clipPath></defs></svg>